# Blender v2.79 (sub 1) OBJ File: ''
# www.blender.org
o Cube
v 1.000000 -1.000000 -1.000000
v 1.000000 -1.000000 1.000000
v -1.000000 -1.000000 1.000000
v -1.000000 -1.000000 -1.000000
v 1.000000 1.000000 -0.999999
v 0.999999 1.000000 1.000001
v -1.000000 1.000000 1.000000
v -1.000000 1.000000 -1.000000
vt 0.331785 0.331785
vt 0.001548 0.001548
vt 0.331785 0.001548
vt 0.665119 0.331785
vt 0.334881 0.001548
vt 0.665119 0.001548
vt 0.001548 0.331785
vt 0.334881 0.331785
vt 0.331785 0.668215
vt 0.001548 0.998452
vt 0.001548 0.668215
vt 0.331785 0.998452
vt 0.331785 0.665119
vt 0.001548 0.334881
vt 0.331785 0.334881
vt 0.001548 0.665119
vt 0.665119 0.334881
vt 0.334881 0.665119
vt 0.334881 0.334881
vt 0.665119 0.665119
vt 0.998452 0.331785
vt 0.668215 0.001548
vt 0.998452 0.001548
vt 0.668215 0.331785
vn 0.0000 -1.0000 0.0000
vn 1.0000 -0.0000 0.0000
vn 0.0000 -0.0000 1.0000
vn 0.0000 1.0000 0.0000
vn 0.0000 0.0000 -1.0000
vn -1.0000 -0.0000 -0.0000
s off
f 2/1/1 4/2/1 1/3/1
f 5/4/2 2/5/2 1/6/2
f 2/1/1 3/7/1 4/2/1
f 5/4/2 6/8/2 2/5/2
f 6/9/3 3/10/3 2/11/3
f 6/9/3 7/12/3 3/10/3
f 8/13/4 6/14/4 5/15/4
f 8/13/4 7/16/4 6/14/4
f 1/17/5 8/18/5 5/19/5
f 1/17/5 4/20/5 8/18/5
f 3/21/6 8/22/6 4/23/6
f 3/21/6 7/24/6 8/22/6
